<svg id="Layer_1" enable-background="new 0 0 512 512" height="512" viewBox="0 0 512 512" width="512" xmlns="http://www.w3.org/2000/svg"><g><g><path d="m512 256c0-68.38-26.629-132.668-74.98-181.02-48.353-48.351-112.64-74.98-181.02-74.98l-21.333 256 21.333 256c68.38 0 132.667-26.629 181.019-74.98 48.352-48.352 74.981-112.64 74.981-181.02z" fill="#0ed678"/><path d="m256 0c-68.38 0-132.667 26.629-181.02 74.98-48.351 48.352-74.98 112.64-74.98 181.02s26.629 132.668 74.98 181.02c48.353 48.351 112.64 74.98 181.02 74.98z" fill="#04eb84"/></g><g><g><path d="m275.277 165.44h30v163.541h-30z" fill="#f7f0eb"/></g><g><g><path d="m211.744 165.44v64.481h-62.413v-64.481h-30v163.541h30v-69.06h62.413v69.06h30v-163.541z" fill="#fffbf5"/></g></g><path d="m365.918 308.459c-10.908 0-19.751 8.843-19.751 19.751 0 10.909 8.843 19.751 19.751 19.751s19.751-8.843 19.751-19.751c.001-10.908-8.842-19.751-19.751-19.751z" fill="#f7f0eb"/><g><g><path d="m351.048 149.039h30v140.218h-30z" fill="#f7f0eb"/></g></g></g></g></svg>